<?xml version="1.0" encoding="utf-8"?>
<!-- Generator: Adobe Illustrator 21.1.0, SVG Export Plug-In . SVG Version: 6.00 Build 0)  -->
<svg version="1.1" id="Layer_1" xmlns="http://www.w3.org/2000/svg" xmlns:xlink="http://www.w3.org/1999/xlink" x="0px" y="0px"
	 viewBox="0 0 40 50" style="enable-background:new 0 0 40 50;" xml:space="preserve">
<style type="text/css">
	.st0{fill:#666666;}
	.st1{fill:#FFFFFF;}
</style>
<g>
	<g>
		<path class="st0" d="M28.5,6c-5.6,6-11.3,12.1-16.9,18.1c-1.3,1.4,0.8,3.5,2.1,2.1c5.6-6,11.3-12.1,16.9-18.1
			C32,6.7,29.8,4.6,28.5,6L28.5,6z"/>
	</g>
</g>
<g>
	<line class="st1" x1="29.6" y1="42" x2="12.6" y2="25.4"/>
	<g>
		<path class="st0" d="M30.7,41c-5.7-5.6-11.3-11.1-17-16.7c-1.4-1.4-3.5,0.8-2.1,2.1c5.7,5.6,11.3,11.1,17,16.7
			C29.9,44.4,32,42.3,30.7,41L30.7,41z"/>
	</g>
</g>
</svg>
