<?xml version="1.0" encoding="utf-8"?>
<!-- Generator: Adobe Illustrator 21.1.0, SVG Export Plug-In . SVG Version: 6.00 Build 0)  -->
<svg version="1.1" id="Layer_1" xmlns="http://www.w3.org/2000/svg" xmlns:xlink="http://www.w3.org/1999/xlink" x="0px" y="0px"
	 viewBox="0 0 40 50" style="enable-background:new 0 0 40 50;" xml:space="preserve">
<style type="text/css">
	.st0{fill:#666666;}
	.st1{fill:#FFFFFF;}
</style>
<g>
	<g>
		<path class="st0" d="M13.7,43.1c5.6-6,11.3-12.1,16.9-18.1c1.3-1.4-0.8-3.5-2.1-2.1c-5.6,6-11.3,12.1-16.9,18.1
			C10.2,42.4,12.3,44.5,13.7,43.1L13.7,43.1z"/>
	</g>
</g>
<g>
	<line class="st1" x1="12.6" y1="7.1" x2="29.6" y2="23.8"/>
	<g>
		<path class="st0" d="M11.5,8.2c5.7,5.6,11.3,11.1,17,16.7c1.4,1.4,3.5-0.8,2.1-2.1C25,17.1,19.3,11.6,13.6,6
			C12.3,4.7,10.1,6.8,11.5,8.2L11.5,8.2z"/>
	</g>
</g>
</svg>
